<?xml version="1.0" encoding="iso-8859-1"?>
<!-- Generator: Adobe Illustrator 19.0.0, SVG Export Plug-In . SVG Version: 6.00 Build 0)  -->
<svg version="1.1" id="Layer_1" xmlns="http://www.w3.org/2000/svg" xmlns:xlink="http://www.w3.org/1999/xlink" x="0px" y="0px"
	 viewBox="0 0 512.057 512.057" style="enable-background:new 0 0 512.057 512.057;" xml:space="preserve">
<path style="fill:#E4E7ED;" d="M256.028,0c141.4,0,256.028,114.629,256.028,256.028S397.428,512.057,256.028,512.057
	S0,397.428,0,256.028S114.629,0,256.028,0z"/>
<g>
	<polygon style="fill:#6B7F9E;" points="284.898,144.916 333.506,144.916 333.506,196.644 284.898,196.644 	"/>
	<path style="fill:#6B7F9E;" d="M309.231,189.384L309.231,189.384c43.39,0,78.896,35.506,78.896,78.896v207.08
		c-38.569,23.255-83.774,36.697-132.098,36.697c-8.678,0-17.242-0.454-25.694-1.305V268.28
		C230.335,224.89,265.841,189.384,309.231,189.384z"/>
</g>
<polygon style="fill:#FFFFFF;" points="284.898,31.536 333.506,31.536 333.506,144.916 284.898,144.916 "/>
<g>
	<polygon style="fill:#83CF8F;" points="299.929,281.382 388.126,281.382 388.126,450.29 299.929,450.29 	"/>
	<path style="fill:#83CF8F;" d="M285.295,40.157h47.871c2.325,0,4.254,2.099,4.254,4.708v24.9c0,2.609-1.928,4.708-4.254,4.708
		h-47.871c-2.325,0-4.254-2.099-4.254-4.708v-24.9C281.041,42.255,282.97,40.157,285.295,40.157z"/>
</g>
<path style="fill:#FFFFFF;" d="M388.126,322.9v85.815c-0.51,0-1.021,0.057-1.531,0.057c-15.768,0-29.55-8.508-36.981-21.156h-8.338
	v-43.617h8.338c7.487-12.648,21.27-21.156,36.981-21.156C387.105,322.843,387.616,322.843,388.126,322.9z"/>
<g>
	<circle style="fill:#8597B1;" cx="280.701" cy="227.045" r="12.195"/>
	<circle style="fill:#8597B1;" cx="359.937" cy="238.219" r="7.09"/>
</g>
<path style="fill:#FFFFFF;" d="M224.89,136.692c2.439,8.791,3.743,18.15,3.743,27.849c0,91.771-70.501,88.765-76.627,146.845v74.528
	h34.372c2.893,0,5.275,2.382,5.275,5.275v3.573h-90.41v-3.573c0-2.893,2.382-5.275,5.275-5.275h34.088v-74.528
	c-6.126-58.08-76.343-55.074-76.343-146.845c0-9.699,1.305-19.057,3.743-27.849H224.89z"/>
<path style="fill:#6B7F9E;" d="M217.346,176.395c-4.594,46.566-34.598,85.702-70.898,85.702c-36.357,0-66.361-39.136-70.898-85.702
	c4.254,0.737,8.621,1.021,12.818,0.567c20.135-2.325,26.091-2.325,51.501,2.666c25.41,4.935,52.465,3.97,68.97-0.964
	c3.12-0.964,5.955-1.645,8.508-2.155V176.395z"/>
<g>
	<path style="fill:#8597B1;" d="M125.859,222.451c6.75,0,12.195,5.445,12.195,12.195s-5.445,12.195-12.195,12.195
		c-6.75,0-12.195-5.445-12.195-12.195S119.109,222.451,125.859,222.451z"/>
	<path style="fill:#8597B1;" d="M191.879,195.226c3.914,0,7.09,3.176,7.09,7.09s-3.176,7.09-7.09,7.09s-7.09-3.176-7.09-7.09
		S187.966,195.226,191.879,195.226z"/>
</g>
<polygon style="fill:#E4E7ED;" points="140.606,383.702 152.006,383.702 152.006,385.914 140.606,385.914 "/>
<g>
</g>
<g>
</g>
<g>
</g>
<g>
</g>
<g>
</g>
<g>
</g>
<g>
</g>
<g>
</g>
<g>
</g>
<g>
</g>
<g>
</g>
<g>
</g>
<g>
</g>
<g>
</g>
<g>
</g>
</svg>
