<?xml version="1.0" encoding="iso-8859-1"?>
<!-- Generator: Adobe Illustrator 19.0.0, SVG Export Plug-In . SVG Version: 6.00 Build 0)  -->
<svg version="1.1" id="Layer_1" xmlns="http://www.w3.org/2000/svg" xmlns:xlink="http://www.w3.org/1999/xlink" x="0px" y="0px"
	 viewBox="0 0 512.003 512.003" style="enable-background:new 0 0 512.003 512.003;" xml:space="preserve">
<path style="fill:#FFCD54;" d="M512.002,256.006c0,141.396-114.606,255.998-255.996,255.994
	C114.607,512.004,0.001,397.402,0.001,256.006C-0.006,114.61,114.607,0,256.005,0C397.396,0,512.002,114.614,512.002,256.006z"/>
<path style="fill:#F4BA41;" d="M504.289,318.481c-0.078-0.076-201.468-201.492-202.042-202.022
	c-6.065-6.054-14.258-11.364-24.268-13.458c-0.093-0.069-0.176-0.142-0.272-0.206c-0.468-0.56-11.547-11.739-12.131-12.131
	c-2.413-2.884-6.562-3.724-9.837-1.655c-9.204,5.789-13.22,16.923-10.238,28.363c1.421,5.447,3.733,9.023,6.554,11.446
	c0.512,0.571,1.03,1.122,1.585,1.596c0.49,0.54,51.033,51.11,51.562,51.563c0.014,0.015,0.028,0.033,0.042,0.048
	c-0.758,8.973-2.605,17.439-5.273,25.399c-0.071-0.071-0.146-0.143-0.219-0.213c-0.457-0.547-128.395-128.415-128.911-128.912
	c-1.618-1.938-3.607-3.585-5.961-4.847c-3.717-1.993-8.356-0.597-10.35,3.124c-1.766,3.297-0.757,7.207,2.059,9.468
	c0.407,0.586,2.127,2.233,2.477,2.572c-32.798-6.238-50.854,33.578-51.813,35.809l-0.523,1.452
	c-4.636,12.854-7.431,20.614-7.431,36.81c0,37.783,15.235,71.602,39.179,94.304c0.512,0.503,59.539,59.577,59.745,59.775
	c-3.951,7.228-9.483,13.91-17.205,20.946c-3.423,3.12-7.155,6.073-10.913,9.055c-13.411,10.649-28.612,22.716-32.065,43.435
	c-1.643,9.854,0.69,19.02,6.745,26.5c1.155,1.427,2.444,2.739,3.794,3.993c0.497,0.513,88.953,88.991,89.478,89.478
	c0.402,0.415,0.811,0.825,1.227,1.227c5.535,0.356,11.099,0.603,16.723,0.603C375.841,512.003,476.404,429.667,504.289,318.481z"/>
<path style="fill:#F4F6F9;" d="M412.703,259.819c0-23.179-18.852-42.038-42.027-42.038c-23.189,0-42.057,18.86-42.057,42.038
	c0,19.121,12.844,35.269,30.349,40.354c-0.661,9.139-4.204,19.461-7.47,28.691c-0.971,2.754-1.919,5.43-2.766,7.999
	c-5.789,17.561-12.172,34.368-26.515,46.961c-31.296,27.486-74.118,42.071-117.508,40.169c-17.744-0.799-39.482-6.334-48.044-16.912
	c-3.314-4.098-4.475-8.797-3.55-14.37c2.485-14.915,14.146-24.171,26.493-33.972c3.916-3.105,7.962-6.319,11.701-9.727
	c20.308-18.506,28.791-36.175,30.038-62.965c58.362-5.279,99.627-51.632,99.627-114.131c0-16.639-2.4-25.686-8.137-40.915
	c-0.09-0.246-0.197-0.489-0.314-0.724c-5.835-11.666-23.206-31.403-49.086-27.971c0.16-0.115,0.272-0.253,0.445-0.362
	c3.572-2.246,4.646-6.964,2.396-10.541c-2.243-3.575-6.964-4.654-10.541-2.396c-9.204,5.789-13.22,16.923-10.238,28.363
	c3.542,13.579,12.47,15.867,21.588,16.318c0.127,0.004,0.257,0.007,0.384,0.007c4.046,0,7.424-3.18,7.629-7.267
	c0.205-4.218-3.042-7.805-7.26-8.014c-2.139-0.106-3.542-0.24-4.548-0.532c21.887-4.341,33.87,16.1,35.401,18.941
	c4.86,12.929,6.991,20.282,6.991,35.092c0,57.58-40.187,99.372-95.557,99.372c-52.683,0-95.542-48.719-95.542-108.603
	c0-13.522,2.046-19.196,6.525-31.625l0.324-0.963c0.13-0.286,11.719-25.758,29.999-26.827c-4.092,0.752-6.853,4.626-6.166,8.743
	c0.62,3.744,3.859,6.394,7.532,6.394c0.414,0,0.836-0.033,1.258-0.105c7.879-1.307,16.613-3.837,20.476-17.36
	c3.378-11.746-0.411-22.537-9.652-27.493c-3.717-1.994-8.357-0.597-10.35,3.124c-1.994,3.722-0.597,8.353,3.124,10.35
	c0.809,0.433,1.347,1.052,1.77,1.732c-33.03-6.608-51.21,33.527-52.172,35.766l-0.523,1.452c-4.636,12.854-7.431,20.614-7.431,36.81
	c0,66.783,47.55,121.246,106.773,123.661c-1.178,22.132-7.987,35.814-25.055,51.364c-3.423,3.12-7.155,6.073-10.913,9.055
	c-13.41,10.649-28.612,22.716-32.065,43.435c-1.643,9.854,0.69,19.021,6.745,26.5c15.915,19.659,52.142,22.245,59.237,22.566
	c2.806,0.127,5.606,0.19,8.405,0.19c44.386-0.004,87.678-15.855,119.882-44.143c17.218-15.12,24.727-34.801,30.945-53.661
	c0.814-2.467,1.725-5.042,2.661-7.689c3.543-10.016,7.357-21.242,8.24-32.275C395.703,299.909,412.703,281.83,412.703,259.819z
	 M370.676,286.577c-14.762,0-26.769-12.003-26.769-26.757c0-14.751,12.007-26.75,26.769-26.75c14.743,0,26.739,12,26.739,26.75
	C397.415,274.573,385.419,286.577,370.676,286.577z"/>
<g>
</g>
<g>
</g>
<g>
</g>
<g>
</g>
<g>
</g>
<g>
</g>
<g>
</g>
<g>
</g>
<g>
</g>
<g>
</g>
<g>
</g>
<g>
</g>
<g>
</g>
<g>
</g>
<g>
</g>
</svg>
